<svg xmlns="http://www.w3.org/2000/svg" xmlns:xlink="http://www.w3.org/1999/xlink" width="24" height="24" viewBox="0 0 24 24">
    <defs>
        <path id="a" d="M.032.428v23.113h23.081V.428z"/>
    </defs>
    <g fill="none" fill-rule="evenodd">
        <g>
            <mask id="b" fill="#fff">
                <use xlink:href="#a"/>
            </mask>
            <path fill="#0F0F0F" d="M21.924 9.417h-2.163a.81.81 0 0 1-.767-.512.811.811 0 0 1 .18-.905l1.53-1.53a1.19 1.19 0 0 0 0-1.683l-1.95-1.95a1.219 1.219 0 0 0-1.683 0l-1.53 1.53a.805.805 0 0 1-.903.18.809.809 0 0 1-.514-.766V1.617A1.19 1.19 0 0 0 12.935.428h-2.757a1.19 1.19 0 0 0-1.189 1.19V3.78a.81.81 0 0 1-.512.766.808.808 0 0 1-.905-.18l-1.53-1.53a1.219 1.219 0 0 0-1.683 0l-1.95 1.95a1.187 1.187 0 0 0-.346.843c0 .317.123.617.347.84L3.94 8a.811.811 0 0 1 .18.905.808.808 0 0 1-.767.512H1.189A1.19 1.19 0 0 0 0 10.607v2.756a1.19 1.19 0 0 0 1.19 1.189h2.163c.346 0 .632.193.766.514a.805.805 0 0 1-.18.903L2.41 17.5a1.185 1.185 0 0 0-.346.84c0 .32.123.619.347.843l1.95 1.95c.449.449 1.233.449 1.682 0l1.53-1.53a.811.811 0 0 1 .905-.18.81.81 0 0 1 .512.767v2.163a1.19 1.19 0 0 0 1.189 1.19h2.757a1.19 1.19 0 0 0 1.189-1.19V20.19a.81.81 0 0 1 .512-.767.808.808 0 0 1 .905.18l1.53 1.53c.45.449 1.233.449 1.683 0l1.95-1.95c.223-.224.347-.523.347-.843a1.19 1.19 0 0 0-.348-.84l-1.53-1.53a.809.809 0 0 1-.18-.903.807.807 0 0 1 .768-.514h2.163a1.19 1.19 0 0 0 1.19-1.189v-2.757a1.19 1.19 0 0 0-1.19-1.189zm.335 3.946c0 .184-.151.335-.335.335h-2.163c-.694 0-1.291.399-1.557 1.04a1.654 1.654 0 0 0 .366 1.837l1.527 1.53c.132.13.132.341 0 .473l-1.947 1.947a.333.333 0 0 1-.473 0l-1.53-1.527a1.658 1.658 0 0 0-1.837-.366 1.661 1.661 0 0 0-1.04 1.557v2.163c0 .184-.15.335-.335.335h-2.757a.336.336 0 0 1-.334-.335V20.19c0-.694-.397-1.291-1.041-1.557a1.665 1.665 0 0 0-1.837.364l-1.528 1.53a.336.336 0 0 1-.474 0l-1.948-1.948a.338.338 0 0 1 0-.475l1.53-1.528a1.657 1.657 0 0 0 .364-1.837 1.658 1.658 0 0 0-1.557-1.04H1.189a.333.333 0 0 1-.332-.335v-2.757c0-.183.148-.334.332-.334h2.164c.695 0 1.291-.397 1.557-1.041a1.656 1.656 0 0 0-.364-1.837l-1.53-1.528a.338.338 0 0 1 0-.474l1.948-1.948a.338.338 0 0 1 .474 0l1.528 1.528a1.657 1.657 0 0 0 1.837.366 1.655 1.655 0 0 0 1.04-1.557V1.617c0-.184.152-.332.335-.332h2.757c.184 0 .334.148.334.332v2.164c0 .695.4 1.291 1.041 1.557a1.657 1.657 0 0 0 1.837-.364l1.53-1.53c.13-.13.343-.13.473 0l1.947 1.95a.331.331 0 0 1 0 .472L18.57 7.394a1.66 1.66 0 0 0-.366 1.84c.266.64.863 1.04 1.557 1.04h2.163a.333.333 0 0 1 .335.332v2.757z" mask="url(#b)"/>
        </g>
        <path fill="#000" d="M11.558 8.132a3.858 3.858 0 0 0-3.855 3.854 3.858 3.858 0 0 0 3.855 3.852 3.857 3.857 0 0 0 3.852-3.852 3.858 3.858 0 0 0-3.852-3.854zm0 6.849a3 3 0 0 1-2.997-2.995 3 3 0 0 1 2.997-2.997 2.999 2.999 0 0 1 2.994 2.997 2.998 2.998 0 0 1-2.994 2.995z"/>
    </g>
</svg>
