<?xml version="1.0" encoding="UTF-8" standalone="no"?>
<svg width="26px" height="26px" id='menu-i' viewBox="0 0 26 26" version="1.1" xmlns="http://www.w3.org/2000/svg" xmlns:xlink="http://www.w3.org/1999/xlink">
    <!-- Generator: sketchtool 46.2 (44496) - http://www.bohemiancoding.com/sketch -->
    <title>BA523A9B-4654-46A3-958F-0041DCF5353D</title>
    <desc>Created with sketchtool.</desc>
    <defs></defs>
    <g id="Page-1" stroke="none" stroke-width="1" fill="none" fill-rule="evenodd" stroke-linecap="square">
        <g id="All-activations" transform="translate(-1373.000000, -16.000000)" stroke="#0F0F0F">
            <g id="menu">
                <g id="profile" transform="translate(1374.000000, 17.000000)">
                    <g>
                        <path d="M24.2059677,12.3045161 C24.2059677,18.8770968 18.8777419,24.206129 12.3043548,24.206129 C5.73177419,24.206129 0.403548387,18.8770968 0.403548387,12.3045161 C0.403548387,5.73193548 5.73177419,0.402903226 12.3043548,0.402903226 C18.8777419,0.402903226 24.2059677,5.73193548 24.2059677,12.3045161 Z" id="Stroke-8"></path>
                        <path d="M12.303629,15.3327838 C14.1608871,15.3327838 15.6665323,13.5045579 15.6665323,11.2489128 C15.6665323,8.99326762 15.171371,7.16423536 12.303629,7.16423536 C9.43508065,7.16423536 8.94072581,8.99326762 8.94072581,11.2489128 C8.94072581,13.5045579 10.446371,15.3327838 12.303629,15.3327838" id="Fill-1"></path>
                        <path d="M18.6473387,21.4040741 C18.5852419,17.4742354 18.0715323,16.3548805 14.1449194,15.6460096 C14.1449194,15.6460096 13.5916935,16.3508483 12.3037903,16.3508483 C11.0150806,16.3508483 10.4618548,15.6460096 10.4618548,15.6460096 C6.57798387,16.3476225 6.03362903,17.4500418 5.96185484,21.2766547" id="Fill-6"></path>
                    </g>
                </g>
            </g>
        </g>
    </g>
</svg>